# xmcd
# Track frame offsets:
# 150
# 12169
# 28831
# 51745
# 69493
# 83109
# 99225
# 115198
# 127948
# 137561
# 167471
#
# Disc length: 2486 seconds
# Revision: 0
# Processed by: cddbd v1.5.1PL2 Copyright (c) Steve Scherf et al.
# Submitted via: VisiTrax 2.10.0.244 - For more info visit www.synapsa.com
#
DISCID=8909b40b
DTITLE=Electric Flag (Mike Bloomfield) - A Long Time Comin'
DYEAR=1968
DGENRE=
TTITLE0=Killing floor
TTITLE1=Groovin' easy
TTITLE2=Over-lovin' you
TTITLE3=She Should Have Just
TTITLE4=Wine
TTITLE5=Texas
TTITLE6=Sittin' in circles
TTITLE7=You don't realize
TTITLE8=Another Country
TTITLE9=Easy Rider
TTITLE10=Sunny
EXTD=
EXTT0=
EXTT1=
EXTT2=
EXTT3=
EXTT4=
EXTT5=
EXTT6=
EXTT7=
EXTT8=
EXTT9=
EXTT10=
PLAYORDER=
